<?xml version="1.0" standalone="no"?>
<!DOCTYPE svg PUBLIC "-//W3C//DTD SVG 20010904//EN"
 "http://www.w3.org/TR/2001/REC-SVG-20010904/DTD/svg10.dtd">
<svg version="1.0" xmlns="http://www.w3.org/2000/svg"
 width="120.000000pt" height="120.000000pt" viewBox="0 0 120.000000 120.000000"
 preserveAspectRatio="xMidYMid meet">
<metadata>
Created by potrace 1.14, written by Peter Selinger 2001-2017
</metadata>
<g transform="translate(0.000000,120.000000) scale(0.100000,-0.100000)"
fill="#000000" stroke="none">
<path d="M700 1080 c-60 -11 -147 -57 -198 -104 -80 -75 -121 -168 -127 -291
-5 -107 -19 -118 -149 -121 -48 -1 -92 -6 -96 -11 -18 -19 -20 -51 -5 -67 19
-19 166 -23 226 -6 70 19 119 99 119 193 0 113 52 213 138 268 58 37 108 50
193 53 70 1 99 15 99 47 0 36 -28 50 -99 48 -36 -2 -82 -5 -101 -9z"/>
<path d="M720 891 c-73 -22 -138 -79 -165 -145 -9 -22 -18 -80 -21 -134 -7
-128 -31 -175 -109 -215 -33 -17 -61 -20 -164 -22 -108 -1 -125 -3 -137 -20
-19 -25 -18 -39 6 -60 17 -15 35 -17 152 -13 115 3 139 7 178 27 113 58 159
139 170 299 7 113 20 141 80 177 29 16 55 19 193 21 143 1 162 3 174 19 17 24
17 40 -3 59 -13 13 -42 16 -172 15 -86 0 -168 -4 -182 -8z"/>
<path d="M885 710 c-73 -3 -117 -10 -132 -20 -32 -21 -50 -74 -51 -155 -2 -87
-8 -118 -37 -176 -49 -96 -146 -158 -267 -168 -80 -7 -98 -16 -98 -53 0 -35
26 -46 97 -43 83 4 167 34 232 83 110 84 158 179 167 336 3 50 8 94 10 98 3 4
63 8 133 8 124 0 128 1 140 24 16 28 0 66 -27 67 -9 0 -26 1 -37 2 -11 1 -69
0 -130 -3z"/>
</g>
</svg>
